Poster: 
http://picturestack.com/725/374/KFwSavages201ZgN.jpg


Info:

Format : MPEG-4
Format profile : Base Media
Codec ID : isom
File size : 2.00 GiB
Duration : 2h 10mn
Overall bit rate mode : Variable
Overall bit rate : 2 194 Kbps
Encoded date : UTC 2012-07-18 03:31:38
Tagged date : UTC 2012-07-18 03:31:38

Video
ID : 1
Format : AVC
Format/Info : Advanced Video Codec
Format profile : High@L4.1
Format settings, CABAC : Yes
Format settings, ReFrames : 3 frames
Codec ID : avc1
Codec ID/Info : Advanced Video Coding
Duration : 2h 10mn
Bit rate mode : Variable
Bit rate : 2 063 Kbps
Nominal bit rate : 1 535 Kbps
Maximum bit rate : 40.0 Mbps
Width : 720 pixels
Height : 384 pixels
Display aspect ratio : 1.85:1
Frame rate mode : Constant
Frame rate : 29.970 fps
Color space : YUV
Chroma subsampling : 4:2:0
Bit depth : 8 bits
Scan type : Progressive
Bits/(Pixel*Frame) : 0.249
Stream size : 1.88 GiB (94%)
Writing library : x264 core 125 r2200 999b753
Encoded date : UTC 2012-07-18 09:16:25
Tagged date : UTC 2012-07-18 03:34:53

Audio
ID : 2
Format : MPEG Audio
Format version : Version 1
Format profile : Layer 3
Mode : Joint stereo
Mode extension : MS Stereo
Codec ID : 6B
Duration : 2h 10mn
Bit rate mode : Constant
Bit rate : 128 Kbps
Maximum bit rate : 132 Kbps
Channel(s) : 2 channels
Sampling rate : 48.0 KHz
Compression mode : Lossy
Stream size : 170 MiB (8%)
Writing library : LAME3.99r
Encoding settings : -m j -V 4 -q 2 -lowpass 17 -b 128
Encoded date : UTC 2012-07-19 00:16:38
Tagged date : UTC 2012-07-18 03:34:53

Note:
First off thanks to a good m8..Messed about with the normal filters etc. The res is much better then the last release. It turned black and white three times in the movie also. The previews were left in to have the full cinema experience. Btw the audio is cam and in sync and dam good except for a slight chuckle bout three times in the flick. Enjoy A sample has been included to test for quality and compatibility and don't fall for fakes, grab our encodes from the source or from our trusted accounts elsewhere

SCREENS: 
http://picturestack.com/725/43/rwNSavages20144T.jpg 
http://picturestack.com/725/70/fwCSavages201IbU.jpg 
http://picturestack.com/725/96/SUVSavages201tTg.jpg 
http://picturestack.com/725/128/76RSavages201C8M.jpg 
http://picturestack.com/725/154/8xMSavages20179C.jpg 
http://picturestack.com/725/177/5CUSavages201rgp.jpg
